<svg id="m26logo-Layer_1" xmlns="http://www.w3.org/2000/svg" xmlns:xlink="http://www.w3.org/1999/xlink" version="1.1" viewBox="0 0 1296 249.84" role="img" aria-labelledby="m26logo-title"><title id="m26logo-title">method26</title>
  <defs>
    <clipPath id="m26logo-clippath">
      <path fill="none" d="M1083.39,153.58c0,51.76-41.96,93.72-93.71,93.72s-93.74-41.96-93.74-93.72,41.97-93.74,93.74-93.74,93.71,41.96,93.71,93.74Z"/>
    </clipPath>
  </defs>
  <path fill="#727a80" d="M525.54,220.15c-18.3,17.94-40.2,26.91-65.7,26.91s-48.04-8.97-66.58-26.91c-18.3-18.07-27.44-40.07-27.44-66.05s9.08-48.22,27.27-66.41c18.17-18.41,40.25-27.63,66.23-27.63,18.53,0,35.65,5.09,51.35,15.24,15.7,10.03,27.27,23.62,34.71,40.72l-129.26,83.94c12.16,11.45,26.74,17.17,43.73,17.17s32.41-6.08,44.45-18.24c12.15-12.27,18.29-27.15,18.41-44.62h30.46c-.23,25.86-9.44,47.81-27.62,65.88ZM459.31,90.35c-17.71,0-32.65,6.26-44.8,18.77-12.28,12.52-18.43,27.5-18.43,44.98,0,6.38,1.19,13.22,3.55,20.54l103.41-67.11c-12.16-11.44-26.74-17.17-43.74-17.17Z"/>
  <path fill="#727a80" d="M842.19,244.4v-105.71c0-13.34-4.73-24.72-14.17-34.17s-20.84-14.17-34.17-14.17-24.5,4.72-34.18,14.17c-9.44,9.45-14.16,20.84-14.16,34.17v105.71h-30.11V2.7h30.11v82.51c14.63-16.75,32.82-25.15,54.53-25.15s38.07,8.04,52.23,24.09c13.47,15.46,20.19,33.65,20.19,54.54v105.71h-30.27Z"/>
  <path fill="#727a80" d="M1262.22,219.8c-18.18,18.17-40.26,27.27-66.23,27.27s-47.93-9.1-66.23-27.27c-18.3-18.3-27.45-40.31-27.45-66.05s8.79-47.22,26.39-65.87c17.71-18.53,39.14-27.81,64.28-27.81,26.44,0,48.63,10.1,66.57,30.28V2.7h30.11v151.04c0,25.74-9.16,47.75-27.45,66.05ZM1259.55,153.75c0-17.35-6.24-32.22-18.77-44.62-12.51-12.51-27.44-18.77-44.8-18.77s-32.11,6.26-44.62,18.77c-12.51,12.4-18.77,27.27-18.77,44.62s6.26,32.29,18.77,44.8c12.51,12.4,27.38,18.6,44.62,18.6s32.17-6.19,44.8-18.6c12.52-12.51,18.77-27.44,18.77-44.8Z"/>
  <path fill="#727a80" d="M311.9,86.4c-17.64-17.53-38.8-26.3-63.48-26.3s-45.89,8.77-63.64,26.3c-4.82,4.79-8.92,9.89-12.43,15.22-3.5-5.33-7.61-10.43-12.43-15.22-17.64-17.53-38.81-26.3-63.49-26.3s-45.88,8.77-63.64,26.3c-17.63,17.54-26.46,38.7-26.46,63.49v94.74l27.77-.23v-94.51c0-17.22,6.11-31.93,18.34-44.16,12.12-12.13,26.79-18.18,43.99-18.18s31.88,6.05,44,18.18c11,10.99,17.01,24.03,18.12,39.04-.09,1.7-.23,3.37-.23,5.12v94.51h28.07v-94.51c0-1.13-.11-2.22-.15-3.34.75-15.77,6.77-29.4,18.19-40.82,12.12-12.13,26.79-18.18,44-18.18s31.87,6.05,43.99,18.18c12.24,12.23,18.35,26.95,18.35,44.16v94.74h27.6v-94.74c0-24.79-8.82-45.95-26.46-63.49Z"/>
  <path fill="#727a80" d="M614.49,129.43v-39.92h71.39v-30.28h-71.39V2.54h-30.29v75.52c-.22,25.19-2.95,72.03,2.79,96.2,5.89,24.81,19.68,44.04,41.36,57.7,21.77,13.51,42.31,13.89,57.53,11.47v-29.44c-14.52,2.55-27.01,1.38-41.76-7.61-14.62-8.92-24.44-21.82-28.02-39.04-.8-3.86-1.3-7.7-1.62-11.53v-26.38Z"/>
  <g>
    <path fill="#d77d20" d="M1083.33,153.58c0,51.72-41.93,93.64-93.64,93.64s-93.66-41.93-93.66-93.64,41.93-93.65,93.66-93.65,93.64,41.92,93.64,93.65Z"/>
    <g clip-path="url(#m26logo-clippath)">
      <path fill="#fff" d="M1017.6,171.41c0-9.38,7.34-21.32,20.64-21.32,12.11,0,21.48,10.06,21.48,22.17,0,9.89-7.33,21.83-20.96,21.83-12.11,0-21.15-10.23-21.15-22.68ZM1040.28,87l-35.13,53.54c-2.91,4.27-5.28,9.04-7.33,14.16-2.04,5.63-2.9,11.08-2.9,15.69,0,27.62,21.14,45.18,43.83,45.18s43.65-18.58,43.65-45.36c0-25.24-19.45-40.93-37.35-41.1-2.22,0-4.25,0-6.14.52l27.97-42.63h-26.61ZM903.01,213.02h81.69v-21.49h-49.97l25.57-22.85c19.45-17.22,24.39-30,24.39-42.96,0-20.63-15.86-41.43-41.61-41.43s-41.44,21.82-41.44,41.78c0,1.36,0,2.38.16,4.09h22.52c0-4.95.18-9.89,2.38-14.15,2.57-4.61,8.02-10.23,16.89-10.23s18.43,5.63,18.43,18.93c0,5.8-1.54,13.29-13.99,24.9l-45.02,41.94v21.49Z"/>
    </g>
  </g>
</svg>
